<svg width="14" height="14" viewBox="0 0 14 14" fill="none" xmlns="http://www.w3.org/2000/svg">
<path d="M7.00448 0.223289C3.41248 0.223289 0.499756 3.20921 0.499756 6.89266C0.499756 9.83935 2.36355 12.3393 4.94809 13.2212C5.27317 13.283 5.39254 13.0765 5.39254 12.9004C5.39254 12.7413 5.38644 12.216 5.3837 11.6587C3.57408 12.0621 3.19223 10.8718 3.19223 10.8718C2.89632 10.1009 2.46996 9.89588 2.46996 9.89588C1.87981 9.48196 2.51448 9.49051 2.51448 9.49051C3.16764 9.53751 3.51157 10.1778 3.51157 10.1778C4.09176 11.1973 5.03331 10.9026 5.40448 10.7321C5.46287 10.3011 5.63143 10.0069 5.81748 9.84034C4.37268 9.67173 2.85389 9.09983 2.85389 6.54434C2.85389 5.81619 3.10798 5.22121 3.52407 4.75415C3.45654 4.58617 3.2339 3.90788 3.58709 2.98918C3.58709 2.98918 4.13333 2.80994 5.37638 3.67284C5.89523 3.52507 6.45168 3.45098 7.00448 3.44842C7.55728 3.45098 8.11419 3.52502 8.634 3.67284C9.87553 2.80999 10.421 2.98923 10.421 2.98923C10.7751 3.90782 10.5523 4.58622 10.4848 4.75415C10.9018 5.22121 11.1542 5.81619 11.1542 6.54434C11.1542 9.10593 9.63252 9.66996 8.18406 9.83507C8.41737 10.042 8.62526 10.4479 8.62526 11.0701C8.62526 11.9625 8.61774 12.6807 8.61774 12.9004C8.61774 13.0779 8.73482 13.2858 9.06453 13.2203C11.6476 12.3375 13.5091 9.83841 13.5091 6.89271C13.5091 3.20921 10.5968 0.223289 7.00448 0.223289ZM2.93601 9.72394C2.92168 9.75707 2.87081 9.76702 2.82452 9.74426C2.77731 9.72253 2.75083 9.67735 2.76608 9.64411C2.7801 9.60998 2.83107 9.60045 2.87813 9.62332C2.92539 9.6451 2.95232 9.69069 2.93601 9.72394ZM3.25596 10.0167C3.22496 10.0461 3.16428 10.0324 3.12312 9.98586C3.08059 9.93939 3.07261 9.87717 3.10406 9.84727C3.13608 9.81777 3.19488 9.83158 3.23751 9.87806C3.2801 9.92511 3.28833 9.98685 3.25596 10.0167ZM3.47549 10.3912C3.4356 10.4196 3.37045 10.393 3.33015 10.3337C3.29031 10.2744 3.29031 10.2032 3.33102 10.1747C3.37142 10.1462 3.4356 10.1719 3.47641 10.2308C3.51615 10.291 3.51615 10.3622 3.47544 10.3912L3.47549 10.3912ZM3.84666 10.8249C3.81104 10.8653 3.73507 10.8544 3.67947 10.7994C3.62261 10.7456 3.6068 10.6694 3.64258 10.629C3.67866 10.5886 3.75504 10.6 3.81104 10.6546C3.86745 10.7082 3.88473 10.7851 3.84666 10.8249ZM4.32649 10.9714C4.31073 11.0236 4.23755 11.0474 4.16392 11.0252C4.09034 11.0023 4.04221 10.9411 4.05705 10.8884C4.07235 10.8357 4.14583 10.811 4.22002 10.8348C4.2935 10.8575 4.34178 10.9182 4.32649 10.9714ZM4.87247 11.0335C4.8743 11.0885 4.81185 11.1341 4.7345 11.1351C4.65675 11.1369 4.59379 11.0924 4.59292 11.0382C4.59292 10.9827 4.65401 10.9375 4.73181 10.9362C4.80915 10.9346 4.87247 10.9788 4.87247 11.0335ZM5.40885 11.0124C5.4181 11.0661 5.36439 11.1212 5.28755 11.1359C5.21209 11.15 5.14216 11.1169 5.13256 11.0637C5.12321 11.0087 5.17794 10.9535 5.2533 10.9393C5.33024 10.9256 5.39904 10.9579 5.40885 11.0124Z" fill="#737373"/>
</svg>
