<svg width="13" height="14" viewBox="0 0 13 14" fill="none" xmlns="http://www.w3.org/2000/svg">
<path d="M7.08718 5.06538C7.46652 5.24649 7.79685 5.516 8.05043 5.85125C8.30402 6.1865 8.47344 6.57771 8.54447 6.99202C8.61551 7.40633 8.58608 7.83164 8.45866 8.23222C8.33123 8.63279 8.10954 8.99694 7.8122 9.29407L5.18532 11.921C4.69268 12.4136 4.02452 12.6904 3.32782 12.6904C2.63113 12.6904 1.96297 12.4136 1.47033 11.921C0.977689 11.4283 0.700928 10.7602 0.700928 10.0635C0.700928 9.36676 0.977689 8.6986 1.47033 8.20596L2.49598 7.18031M10.2891 6.81722L11.3147 5.79157C11.8073 5.29893 12.0841 4.63077 12.0841 3.93407C12.0841 3.23737 11.8073 2.56921 11.3147 2.07657C10.8221 1.58394 10.1539 1.30717 9.45721 1.30717C8.76051 1.30717 8.09235 1.58394 7.59971 2.07657L4.97283 4.70345C4.67549 5.00059 4.4538 5.36473 4.32638 5.76531C4.19896 6.16589 4.16953 6.59119 4.24056 7.0055C4.31159 7.41981 4.48102 7.81103 4.7346 8.14628C4.98818 8.48153 5.31852 8.75104 5.69785 8.93215" fill="#262626"/>
<path d="M7.08718 5.06538C7.46652 5.24649 7.79685 5.516 8.05043 5.85125C8.30402 6.1865 8.47344 6.57771 8.54447 6.99202C8.61551 7.40633 8.58608 7.83164 8.45866 8.23222C8.33123 8.63279 8.10954 8.99694 7.8122 9.29407L5.18532 11.921C4.69268 12.4136 4.02452 12.6904 3.32782 12.6904C2.63113 12.6904 1.96297 12.4136 1.47033 11.921C0.977689 11.4283 0.700928 10.7602 0.700928 10.0635C0.700928 9.36676 0.977689 8.6986 1.47033 8.20596L2.49598 7.18031M10.2891 6.81722L11.3147 5.79157C11.8073 5.29893 12.0841 4.63077 12.0841 3.93407C12.0841 3.23737 11.8073 2.56921 11.3147 2.07657C10.8221 1.58394 10.1539 1.30717 9.45721 1.30717C8.76051 1.30717 8.09235 1.58394 7.59971 2.07657L4.97283 4.70345C4.67549 5.00059 4.4538 5.36473 4.32638 5.76531C4.19896 6.16589 4.16953 6.59119 4.24056 7.0055C4.31159 7.41981 4.48102 7.81103 4.7346 8.14628C4.98818 8.48153 5.31852 8.75104 5.69785 8.93215" stroke="#737373" strokeWidth="0.813084" strokeLinecap="round" strokeWidth="round"/>
</svg>
