<svg width="18" height="19" viewBox="0 0 18 19" fill="none" xmlns="http://www.w3.org/2000/svg">
<path d="M15.75 15.79L11.25 11.29M12.75 7.53998C12.75 8.22942 12.6142 8.91211 12.3504 9.54907C12.0865 10.186 11.6998 10.7648 11.2123 11.2523C10.7248 11.7398 10.146 12.1265 9.50909 12.3903C8.87213 12.6542 8.18944 12.79 7.5 12.79C6.81056 12.79 6.12787 12.6542 5.49091 12.3903C4.85395 12.1265 4.2752 11.7398 3.78769 11.2523C3.30018 10.7648 2.91347 10.186 2.64963 9.54907C2.3858 8.91211 2.25 8.22942 2.25 7.53998C2.25 6.14759 2.80312 4.81223 3.78769 3.82767C4.77226 2.8431 6.10761 2.28998 7.5 2.28998C8.89239 2.28998 10.2277 2.8431 11.2123 3.82767C12.1969 4.81223 12.75 6.14759 12.75 7.53998Z" stroke="#78716C" strokeWidth="1.5" strokeLinecap="round" strokeWidth="round"/>
</svg>
